<svg id="Group_179" data-name="Group 179" xmlns="http://www.w3.org/2000/svg" width="38.599" height="31.648" viewBox="0 0 38.599 31.648">
  <ellipse id="Ellipse_3" data-name="Ellipse 3" cx="7.186" cy="7.186" rx="7.186" ry="7.186" transform="translate(0 9.244)" fill="#d1efff"/>
  <g id="Group_5" data-name="Group 5" transform="translate(3.432)">
    <path id="Path_40" data-name="Path 40" d="M-1214.88,8.131c.264-.234.495-.591.8-.67.335-.087.491.376.722.594a13.275,13.275,0,0,0,10.051,3.842,13.079,13.079,0,0,0,9.192-4.215c.264-.275.4-.286.667-.028.525.5.547.489.021,1.019a14.716,14.716,0,0,1-8.629,4.3A14.732,14.732,0,0,1-1214.88,8.131Z" transform="translate(1221.495 17.38)"/>
    <path id="Path_41" data-name="Path 41" d="M-1190.911-234.743a14.318,14.318,0,0,1,9,3.53c.172.145.236.239.04.416-.216.2-.38.551-.611.592-.18.033-.424-.312-.644-.485a13.457,13.457,0,0,0-17.059.346c-.208.179-.3.173-.473-.033-.572-.667-.582-.66.112-1.2A15.05,15.05,0,0,1-1190.911-234.743Z" transform="translate(1209.044 235.922)"/>
    <path id="Path_42" data-name="Path 42" d="M-1194.21-189.141c-.036-.324-.108-.454-.486-.363-.731.177-.726.147-.649.906a9.561,9.561,0,0,1-.4,3.834,8,8,0,0,0-3.3-1.531,3.4,3.4,0,0,0,.333-.264,5.7,5.7,0,0,0,1.646-3.731,5.852,5.852,0,0,0-2.515-5.171,5.852,5.852,0,0,0-5.726-.522.454.454,0,0,1-.517-.05,2.6,2.6,0,0,0-2.142-.385,2.6,2.6,0,0,0-1.686,1.378.46.46,0,0,1-.514.306,2.616,2.616,0,0,0-2.128.981,2.616,2.616,0,0,0-.489,2.292c.072.282.066.418-.222.552a1.828,1.828,0,0,0-1.079,1.467,4.424,4.424,0,0,1-.462,1.414,1.924,1.924,0,0,0,.041,1.891,3.631,3.631,0,0,1,.4,1.243,1.966,1.966,0,0,0,1.148,1.587,2.789,2.789,0,0,1,.926.641,2.192,2.192,0,0,0,2.282.707,1.688,1.688,0,0,1,.947.05c-.033.073-.066.137-.092.2a1.576,1.576,0,0,0,.017,1.415,1.576,1.576,0,0,0,1.145.831,2.5,2.5,0,0,0,1.628-.253,7.408,7.408,0,0,1,6.615.1c-.12.09-.194.151-.273.2a9.694,9.694,0,0,1-6.866,1.562,9.957,9.957,0,0,1-6.707-4.034,9.957,9.957,0,0,1-1.72-7.635,9.97,9.97,0,0,1,9.09-8.129,9.949,9.949,0,0,1,10.013,6.383c.1.255.1.648.322.728s.525-.123.8-.181c.231-.049.26-.146.192-.369a11.171,11.171,0,0,0-12.952-7.512,11.138,11.138,0,0,0-8.66,12.6,11.135,11.135,0,0,0,10.475,9.4,10.82,10.82,0,0,0,9.147-4.105A10.914,10.914,0,0,0-1194.21-189.141Zm-10.585-5.469c-.076-.25-.015-.33.2-.416a4.712,4.712,0,0,1,5.885,2.33,4.69,4.69,0,0,1-1.751,6.046.626.626,0,0,1-.37.132,11.283,11.283,0,0,0-3.194.281.954.954,0,0,1-.153,0c.548-.975-.01-1.789-.407-2.69,1.341.828,2.373.811,3.254,0a2.345,2.345,0,0,0,.512-2.748,2.354,2.354,0,0,0-2.487-1.279,2.373,2.373,0,0,0-1.971,2.3l-1.153-.665c.063-.132.188-.136.282-.183a2.606,2.606,0,0,0,1.35-3.108Zm.708,3.974a1.173,1.173,0,0,1,1.157-1.173,1.174,1.174,0,0,1,.84.344,1.175,1.175,0,0,1,.344.84,1.176,1.176,0,0,1-1.175,1.156,1.179,1.179,0,0,1-1.162-1.167Zm-3.205-4.69a1.469,1.469,0,0,1,1.444,1.483,1.467,1.467,0,0,1-1.483,1.443,1.468,1.468,0,0,1-1.444-1.483,1.464,1.464,0,0,1,1.484-1.443Zm-2.936,1.755c.194,0,.313.036.353.262a2.348,2.348,0,0,0,.862,1.443.283.283,0,0,1,.14.2.284.284,0,0,1-.061.233,1.449,1.449,0,0,1-1.18.8,1.5,1.5,0,0,1-1.108-.4,1.5,1.5,0,0,1-.48-1.074,1.475,1.475,0,0,1,1.477-1.459Zm-.187,10.5a.666.666,0,0,1-.586-.24,4.916,4.916,0,0,0-1.469-1.069.79.79,0,0,1-.469-.651,4.547,4.547,0,0,0-.535-1.657.863.863,0,0,1,.009-.9,4.718,4.718,0,0,0,.526-1.622,1.292,1.292,0,0,1,.906-.9c.1-.012.15.066.217.114a2.606,2.606,0,0,0,2.11.477,2.605,2.605,0,0,0,1.743-1.281c.128-.214.2-.217.355-.044a4.126,4.126,0,0,0,1.327.953.823.823,0,0,1,.5.672,4.586,4.586,0,0,0,.535,1.657.95.95,0,0,1,.011.869,2.234,2.234,0,0,1-1.256,1.419,1.837,1.837,0,0,0-1.11,1.682c-.019.309-.326.536-.791.526a5.662,5.662,0,0,0-2.021,0Zm12.431,2.12a.533.533,0,0,1-.6.351,1.249,1.249,0,0,1-.638-.179,8.476,8.476,0,0,0-7.376,0,1.394,1.394,0,0,1-.843.172c-.4-.07-.531-.341-.346-.689a1.88,1.88,0,0,1,1.561-.739,1.762,1.762,0,0,0,1.216-.115c1.933-1.087,3.837-.614,5.74.073a2.884,2.884,0,0,1,1.057.557C-1198.056-181.364-1197.888-181.163-1197.984-180.948Zm1.439-2.49c-.113.235-.353.276-.627.274a1.224,1.224,0,0,1-.558-.169,8.472,8.472,0,0,0-7.443-.011,1.376,1.376,0,0,1-.772.174c-.453-.06-.6-.367-.363-.75a1.134,1.134,0,0,1,.5-.419,9.693,9.693,0,0,1,8.7,0,1.119,1.119,0,0,1,.381.278c.153.18.3.38.189.624Z" transform="translate(1222.847 203.537)"/>
    <path id="Path_43" data-name="Path 43" d="M-988.379-246.82c-.253,0-.323.055-.321.316.013,1.757,0,3.515.012,5.272,0,.221-.044.3-.278.284a10.2,10.2,0,0,0-1.171,0c-.255.015-.323-.055-.321-.315.014-1.562.007-3.124.007-4.686,0-.869,0-.858-.858-.87-.254,0-.322.057-.32.317.013,1.757,0,3.515.012,5.272,0,.222-.047.3-.279.283a10.193,10.193,0,0,0-1.171,0c-.256.016-.323-.057-.32-.316.014-1.562.007-3.124.007-4.686,0-.877,0-.868-.9-.869-.224,0-.283.052-.282.28.009,3.137,0,6.273.009,9.409a2,2,0,0,0,1.416,1.926c.215.066.285.14.277.367q-.14,4.355-.262,8.709h0q-.129,4.226-.257,8.453a2.58,2.58,0,0,0,.024.511,2.354,2.354,0,0,0,2.536,1.982,2.339,2.339,0,0,0,2.118-2.386c-.013-1.073-.055-2.147-.089-3.22-.027-.85-.03-.835-.882-.834-.295,0-.33.1-.319.363.052,1.244.1,2.488.117,3.732a1.156,1.156,0,0,1-.339.843,1.156,1.156,0,0,1-.843.338,1.172,1.172,0,0,1-1.153-1.177c0-.317.012-.634.022-.951q.242-7.867.483-15.736c.027-.885.019-.863.9-.9.373-.014.422.115.431.446q.145,5.509.323,11.015c.028.888.042.878.926.855.231-.006.282-.076.274-.3-.064-1.756-.116-3.513-.169-5.269q-.1-3.238-.191-6.477c0-.132-.057-.264.16-.342a2.029,2.029,0,0,0,1.53-2.171v-8.6C-987.521-246.819-987.521-246.808-988.379-246.82Zm-.317,9.629a.871.871,0,0,1-.251.666.869.869,0,0,1-.665.255q-1.425.014-2.851,0a.869.869,0,0,1-.665-.255.87.87,0,0,1-.251-.666c-.009-.78.006-1.559-.007-2.339,0-.213.066-.26.264-.257.693.012,1.389,0,2.083,0s1.389.007,2.083,0c.2,0,.27.043.266.257C-988.7-238.751-988.687-237.973-988.7-237.192Z" transform="translate(1022.688 246.82)"/>
    <path id="Path_44" data-name="Path 44" d="M-1276.1-237.241a8.71,8.71,0,0,0,.687-4.68,6.671,6.671,0,0,0-1.463-3.753A2.583,2.583,0,0,0-1281-245.7a5.07,5.07,0,0,0-.809,1.254,8.862,8.862,0,0,0-.625,5.045,6.274,6.274,0,0,0,1.514,3.461.458.458,0,0,1,.1.372c-.036,1.074-.073,2.147-.1,3.22-.024.865-.02.854.861.875.244.006.3-.064.306-.3.015-1.013.057-2.025.074-3.038,0-.226.049-.315.29-.241a2.32,2.32,0,0,0,.99,0c.009.092.021.176.024.259q.22,7.21.438,14.42c.029.976.066,1.952.079,2.928a1.163,1.163,0,0,1-.333.845,1.162,1.162,0,0,1-.84.347,1.173,1.173,0,0,1-.834-.358,1.174,1.174,0,0,1-.33-.846c0-.317.014-.634.024-.952q.169-5.545.338-11.089c.024-.808.014-.8-.8-.827-.285-.011-.365.061-.372.352-.057,2.306-.135,4.611-.2,6.917-.056,1.891-.128,3.781-.156,5.674a2.319,2.319,0,0,0,2.1,2.294,2.353,2.353,0,0,0,2.522-1.82,4.8,4.8,0,0,0,.043-1.239q-.259-8.637-.528-17.274a.493.493,0,0,1,.159-.417,4.555,4.555,0,0,0,.976-1.4Zm-1.815.59a1.358,1.358,0,0,1-2.071,0,3.338,3.338,0,0,1-.808-1.206,7.837,7.837,0,0,1-.005-5.983,3.432,3.432,0,0,1,.75-1.159,1.384,1.384,0,0,1,2.2,0,4.791,4.791,0,0,1,1.151,2.406,6.908,6.908,0,0,1,.168,1.632,7.249,7.249,0,0,1-.682,3.334,3.376,3.376,0,0,1-.7.974Z" transform="translate(1282.56 246.723)"/>
    <path id="Path_45" data-name="Path 45" d="M-1138.971-93.273c-.194.28-.387.574-.6.854-.053.07-.129-.024-.184-.061-.476-.314-.948-.637-1.429-.944-.144-.092-.123-.16-.046-.286.5-.828.495-.83,1.286-.3.273.182.547.363.817.547C-1139.063-93.421-1138.964-93.4-1138.971-93.273Z" transform="translate(1155.09 109.263)"/>
    <path id="Path_46" data-name="Path 46" d="M-1171.567-91.645c-.157.468-.333.986-.5,1.505-.026.079-.08.081-.142.066-.047-.011-.092-.033-.138-.046-.875-.267-.875-.267-.589-1.126.011-.033.029-.066.04-.1.3-.895.368-.921,1.226-.5C-1171.6-91.81-1171.538-91.794-1171.567-91.645Z" transform="translate(1183.804 107.218)"/>
    <path id="Path_47" data-name="Path 47" d="M-1149.9-66.247a2.283,2.283,0,0,1,.322.8c.037.1.172.25,0,.313-.512.192-1.035.353-1.555.524a.1.1,0,0,1-.088,0,.1.1,0,0,1-.052-.071.916.916,0,0,0-.033-.1c-.345-.874-.345-.874.542-1.171Z" transform="translate(1164.323 83.881)"/>
  </g>
</svg>
