<svg id="Group_180" data-name="Group 180" xmlns="http://www.w3.org/2000/svg" width="42.978" height="28.54" viewBox="0 0 42.978 28.54">
  <ellipse id="Ellipse_3" data-name="Ellipse 3" cx="7.186" cy="7.186" rx="7.186" ry="7.186" transform="translate(7.116 7.084)" fill="#d1efff"/>
  <g id="Group_6" data-name="Group 6">
    <path id="Path_48" data-name="Path 48" d="M-1593.457-31.832c-.111-.056-.094-.112,0-.168Z" transform="translate(1636.434 51.482)"/>
    <path id="Path_49" data-name="Path 49" d="M-1959.553-199.7c-.09-.026-.073-.1-.08-.17a9.008,9.008,0,0,0-1.941-4.694c-2.15-2.648-4.329-5.271-6.5-7.9-1.033-1.25-2.015-2.549-3.134-3.717a4.527,4.527,0,0,0-4.886-1.225,4.7,4.7,0,0,0-3.357,3.77,9.535,9.535,0,0,0,.013,2.507c.01.205-.022.295-.261.291q-1.319-.022-2.643,0c-.252,0-.3-.083-.283-.31.043-.5.079-1,.09-1.507a4.868,4.868,0,0,0-3.018-4.613,4.773,4.773,0,0,0-5.353,1.126c-.965,1.047-1.838,2.177-2.75,3.273a.58.58,0,0,0-.064.108.606.606,0,0,0,.149.825.567.567,0,0,0,.8-.038,8.826,8.826,0,0,0,.6-.7,1.982,1.982,0,0,1,.581-.528,5.318,5.318,0,0,1,6.865,1.722,3.2,3.2,0,0,1,.731,1.92c-.063,1.4-.161,2.791-.248,4.186-.046.745-.1,1.489-.151,2.242-2.792-4.449-6.7-6-11.795-4.651.1-.126.157-.215.227-.3q.787-.955,1.575-1.908a.652.652,0,0,0,.095-.811.574.574,0,0,0-.6-.292.89.89,0,0,0-.541.368c-.764.928-1.537,1.847-2.3,2.781-1.022,1.258-2.144,2.441-3.059,3.778a9.432,9.432,0,0,0,1.032,12.137,9.158,9.158,0,0,0,8.088,2.783,9.221,9.221,0,0,0,6.432-3.84.715.715,0,0,1,.656-.327c2.139.014,4.28.042,6.418-.011a1.569,1.569,0,0,1,1.708.836.708.708,0,0,0,.134.161,9.5,9.5,0,0,0,8.756,3.139,9.638,9.638,0,0,0,7.837-7.574,1.483,1.483,0,0,1,.177-.744v-.42a.11.11,0,0,1-.039-.084.11.11,0,0,1,.039-.084Zm-33.373,9.286a8.341,8.341,0,0,1-8.316-8.28A8.322,8.322,0,0,1-1993-207a8.321,8.321,0,0,1,8.357,8.271,8.334,8.334,0,0,1-8.28,8.317Zm16.985-25.709a3.57,3.57,0,0,1,4.05,1.108,6.719,6.719,0,0,0-6.356,2.559,3.653,3.653,0,0,1,2.3-3.668Zm-6.886,8.437c.046-.541.081-1.084.1-1.627.006-.209.084-.25.275-.249q1.421.013,2.842,0c.2,0,.264.049.271.253q.027.814.1,1.627c.019.209-.048.264-.248.26-.528-.011-1.059,0-1.588,0-.5,0-1-.008-1.505,0C-1982.79-207.414-1982.846-207.48-1982.827-207.682Zm-.217,3.373c.046-.528.075-1.059.1-1.59.008-.2.079-.26.278-.258q1.634.013,3.27,0c.2,0,.271.058.279.257.021.53.05,1.061.1,1.59.02.223-.044.288-.269.282-.587-.015-1.174,0-1.761,0s-1.146-.01-1.719,0c-.225,0-.291-.058-.271-.282Zm-7.113-10.7a3.524,3.524,0,0,1,4.05-1.1,3.6,3.6,0,0,1,2.26,3.638,6.7,6.7,0,0,0-6.31-2.541Zm5.912,20.328c.148-.409.3-.8.429-1.188a14.367,14.367,0,0,0,.5-3.725c.064-.948.123-1.9.167-2.847.01-.222.057-.311.3-.308q1.8.02,3.607,0c.236,0,.3.066.312.3.073,1.41.165,2.819.249,4.228a9.606,9.606,0,0,0,.668,3.053,1.1,1.1,0,0,1,.153.487Zm6.4-10.916c-.079-1.269-.146-2.538-.235-3.806a3.255,3.255,0,0,1,.719-2.048,5.3,5.3,0,0,1,6.921-1.712,1.041,1.041,0,0,1,.33.25q2.039,2.474,4.082,4.942a.192.192,0,0,1,.059.221,9.586,9.586,0,0,0-6.692.157,9.656,9.656,0,0,0-5.014,4.568c-.062-.927-.118-1.748-.168-2.571Zm8.717,15.189a8.336,8.336,0,0,1-8.3-8.3,8.321,8.321,0,0,1,8.295-8.292,8.325,8.325,0,0,1,8.3,8.29,8.341,8.341,0,0,1-8.3,8.3Z" transform="translate(2002.531 217.667)"/>
    <path id="Path_50" data-name="Path 50" d="M-1967.37-99.89a6.612,6.612,0,0,0-6.592,6.583,6.587,6.587,0,0,0,6.562,6.6,6.608,6.608,0,0,0,6.621-6.589A6.631,6.631,0,0,0-1967.37-99.89Zm.024,11.909a5.307,5.307,0,0,1-3.771-1.543,5.306,5.306,0,0,1-1.566-3.761,5.322,5.322,0,0,1,5.321-5.326,5.324,5.324,0,0,1,5.3,5.311,5.311,5.311,0,0,1-5.28,5.317Z" transform="translate(1976.959 112.251)"/>
    <path id="Path_51" data-name="Path 51" d="M-1740.341-99.89a6.631,6.631,0,0,0-6.593,6.591,6.607,6.607,0,0,0,6.62,6.59,6.588,6.588,0,0,0,6.563-6.6A6.613,6.613,0,0,0-1740.341-99.89Zm0,11.909a5.311,5.311,0,0,1-3.762-1.564,5.311,5.311,0,0,1-1.547-3.769,5.325,5.325,0,0,1,5.311-5.3,5.32,5.32,0,0,1,3.76,1.57,5.318,5.318,0,0,1,1.546,3.77,5.306,5.306,0,0,1-5.306,5.288Z" transform="translate(1773.743 112.251)"/>
    <path id="Path_52" data-name="Path 52" d="M-1813.958-55.2a1.931,1.931,0,0,0-1.909,1.927,1.932,1.932,0,0,0,1.9,1.892,1.935,1.935,0,0,0,1.931-1.905A1.932,1.932,0,0,0-1813.958-55.2Zm-.011,2.533a.619.619,0,0,1-.444-.2.62.62,0,0,1-.167-.455.653.653,0,0,1,.625-.608.648.648,0,0,1,.631.642.617.617,0,0,1-.19.445.618.618,0,0,1-.454.17Z" transform="translate(1835.447 72.249)"/>
  </g>
</svg>
