<svg id="Group_178" data-name="Group 178" xmlns="http://www.w3.org/2000/svg" width="49.427" height="29.99" viewBox="0 0 49.427 29.99">
  <ellipse id="Ellipse_3" data-name="Ellipse 3" cx="7.186" cy="7.186" rx="7.186" ry="7.186" transform="translate(5.798 8.698)" fill="#d1efff"/>
  <g id="Group_4" data-name="Group 4">
    <path id="Path_35" data-name="Path 35" d="M468.475-238.681h-5.309a2.729,2.729,0,0,1-.481-.02.739.739,0,0,1-.663-.764.738.738,0,0,1,.627-.8,1.925,1.925,0,0,1,.432-.03q5.406,0,10.811,0a2.1,2.1,0,0,1,.432.027.733.733,0,0,1,.637.783.736.736,0,0,1-.646.777,2.418,2.418,0,0,1-.481.022Z" transform="translate(-453.908 242.737)"/>
    <path id="Path_36" data-name="Path 36" d="M520.97-259.249c-1.172,0-2.345,0-3.517,0-.589,0-.947-.3-.965-.777s.363-.841.96-.843q3.493-.01,6.985,0c.616,0,.967.324.954.837-.012.495-.35.781-.949.783C523.282-259.246,522.126-259.249,520.97-259.249Z" transform="translate(-501.903 260.874)"/>
    <path id="Path_37" data-name="Path 37" d="M443.089-192.03a7.411,7.411,0,0,0-5.5-6.215,13.313,13.313,0,0,0-3.888-.2,3.871,3.871,0,0,1-3.346-1.531,18.779,18.779,0,0,0-6.3-4.915,11.831,11.831,0,0,0-4.954-1.447c-5.806-.057-11.612-.026-17.418-.019a2.436,2.436,0,0,0-2.625,2.615.852.852,0,0,1-.189.569c-2.144,2.692-4.168,5.457-5.125,8.838v3.572a3.04,3.04,0,0,0,.094.622c.287,1.55.753,2.73,2.232,3.352a.693.693,0,0,1,.388.438,5.59,5.59,0,0,0,4.383,3.429,5.59,5.59,0,0,0,5.172-2.054.72.72,0,0,1,.638-.309q11.171.014,22.342,0a.718.718,0,0,1,.639.306,5.567,5.567,0,0,0,4.472,2.119,5.567,5.567,0,0,0,4.393-2.28.913.913,0,0,1,.712-.4c.959-.1,1.916-.22,2.876-.309a1.293,1.293,0,0,0,1.085-.572v-5.406A.573.573,0,0,1,443.089-192.03Zm-17.057-9.461a1.034,1.034,0,0,1,.776.286c.452.427.928.829,1.393,1.241l-.066.1h-3.369c-3.973,0-7.945-.005-11.917.009-.371,0-.528-.08-.474-.47s-.165-.882.09-1.1c.215-.185.7-.059,1.071-.06l12.5-.008Zm-13.662,3.622c-.008-.322.088-.4.4-.4,2.443.012,4.887.007,7.33.007,2.411,0,4.823.009,7.234-.009.369,0,.467.1.45.459a21.76,21.76,0,0,1-.15,3.749,4.915,4.915,0,0,1-4.717,3.889q-2.844.058-5.69,0a4.974,4.974,0,0,1-4.84-4.849C412.361-195.971,412.395-196.92,412.37-197.869Zm-10.732,13.384a3.972,3.972,0,0,1-2.813-1.166,3.973,3.973,0,0,1-1.161-2.816,3.966,3.966,0,0,1,1.164-2.814,3.967,3.967,0,0,1,2.816-1.159,3.97,3.97,0,0,1,2.815,1.163,3.97,3.97,0,0,1,1.162,2.815,3.98,3.98,0,0,1-3.983,3.978Zm32.353,0a3.971,3.971,0,0,1-2.809-1.176,3.97,3.97,0,0,1-1.15-2.82,3.963,3.963,0,0,1,1.172-2.81,3.963,3.963,0,0,1,2.819-1.149,3.961,3.961,0,0,1,2.809,1.172,3.961,3.961,0,0,1,1.148,2.819,3.966,3.966,0,0,1-1.171,2.812,3.966,3.966,0,0,1-2.819,1.153Zm7.2-2.892a12.154,12.154,0,0,0-1.388.163c-.277.045-.33-.041-.282-.3a5.618,5.618,0,0,0-.974-4.224,5.618,5.618,0,0,0-3.69-2.274,5.675,5.675,0,0,0-6.365,4.576,6.368,6.368,0,0,0,.123,2.507H407.043a5.555,5.555,0,0,0-1.106-5.119,5.353,5.353,0,0,0-3.728-1.99,5.625,5.625,0,0,0-6.174,5.3,1.564,1.564,0,0,1-.551-1.19c-.047-1.287-.062-2.573-.112-3.86-.016-.4.111-.525.519-.5.594.041,1.19.021,1.785.007s.924-.33.916-.829-.344-.78-.945-.787c-.257,0-.515,0-.772,0h-.847A21.617,21.617,0,0,1,398-199.32a32.85,32.85,0,0,1,2.235-2.962,1.745,1.745,0,0,0,.453-1.268c-.026-.965.219-1.193,1.182-1.193l16.649,0a11.131,11.131,0,0,1,5.278,1.625h-.5l-18.771,0a.96.96,0,0,0-.93.38.734.734,0,0,0-.022.821,7.227,7.227,0,0,0,4.361,3.486,8.962,8.962,0,0,0,2.4.162c.347-.011.42.105.423.433a34.243,34.243,0,0,0,.057,3.471,6.62,6.62,0,0,0,6.357,5.821q2.895.042,5.791,0a6.607,6.607,0,0,0,6.409-6.286c.036-1.012.009-2.026.018-3.04,0-.132-.078-.311.11-.379a.374.374,0,0,1,.388.132,4.975,4.975,0,0,0,3.62,1.29,14.248,14.248,0,0,1,3.747.172,5.712,5.712,0,0,1,3.134,2.144c-.234.023-.415.033-.594.062a.786.786,0,0,0-.676.809.776.776,0,0,0,.726.763,3.763,3.763,0,0,0,.867.006c.459-.066.631.146.687.558a7.988,7.988,0,0,1,.138,1.1c0,1.142,0,2.284.012,3.426,0,.278-.059.4-.365.412Zm-31.776-12.5a4.535,4.535,0,0,1-3.482-1.608c1.6,0,3.093,0,4.585,0,.194,0,.262.07.239.252a.385.385,0,0,0,0,.048c-.065,1.673.372,1.315-1.342,1.314Z" transform="translate(-393.744 212.847)"/>
    <path id="Path_38" data-name="Path 38" d="M711.732-79.27a2.794,2.794,0,0,0-1.985.832,2.794,2.794,0,0,0-.805,2,2.817,2.817,0,0,0,2.833,2.794,2.8,2.8,0,0,0,1.983-.839,2.8,2.8,0,0,0,.8-2,2.786,2.786,0,0,0-.831-1.984A2.787,2.787,0,0,0,711.732-79.27Zm0,3.992a1.166,1.166,0,0,1-.837-.356,1.166,1.166,0,0,1-.327-.849,1.181,1.181,0,0,1,.358-.837,1.181,1.181,0,0,1,.847-.334,1.188,1.188,0,0,1,.835.365,1.188,1.188,0,0,1,.331.849,1.168,1.168,0,0,1-.357.837,1.167,1.167,0,0,1-.85.326Z" transform="translate(-671.489 100.848)"/>
    <path id="Path_39" data-name="Path 39" d="M439.393-79.268a2.787,2.787,0,0,0-1.992.815,2.788,2.788,0,0,0-.817,1.991,2.8,2.8,0,0,0,.818,1.991,2.8,2.8,0,0,0,1.988.825,2.825,2.825,0,0,0,2.818-2.814,2.8,2.8,0,0,0-.824-1.989A2.8,2.8,0,0,0,439.393-79.268Zm0,3.992a1.186,1.186,0,0,1-.845-.342,1.185,1.185,0,0,1-.352-.84,1.2,1.2,0,0,1,1.193-1.195,1.181,1.181,0,0,1,.842.346,1.181,1.181,0,0,1,.345.843,1.17,1.17,0,0,1-.341.844A1.17,1.17,0,0,1,439.393-75.277Z" transform="translate(-431.493 100.846)"/>
  </g>
</svg>
